<svg width="262" height="226" viewBox="0 0 262 226" fill="none" xmlns="http://www.w3.org/2000/svg">
<g clip-path="url(#clip0_1_116)">
<rect width="241" height="244" transform="translate(0 0.36499)" fill="#FCFBFE"/>
<path d="M68.6848 172.146C68.6848 176.064 67.6686 179.584 65.6363 182.706C63.6334 185.828 60.6879 188.273 56.7999 190.04C52.9119 191.807 48.3023 192.691 42.971 192.691C36.5794 192.691 31.3071 191.483 27.154 189.068C24.2085 187.33 21.808 185.018 19.9524 182.131C18.1262 179.215 17.2131 176.388 17.2131 173.648C17.2131 172.058 17.758 170.703 18.8478 169.584C19.9671 168.435 21.3809 167.861 23.0893 167.861C24.4736 167.861 25.6371 168.303 26.5796 169.186C27.5516 170.07 28.3763 171.38 29.0538 173.118C29.8785 175.18 30.7622 176.903 31.7047 178.288C32.6767 179.672 34.0316 180.821 35.7694 181.734C37.5072 182.617 39.79 183.059 42.6176 183.059C46.5056 183.059 49.6572 182.161 52.0725 180.364C54.5172 178.538 55.7396 176.27 55.7396 173.56C55.7396 171.41 55.0768 169.672 53.7514 168.347C52.4554 166.992 50.7617 165.961 48.6705 165.254C46.6087 164.547 43.8399 163.796 40.3643 163.001C35.7105 161.911 31.8078 160.644 28.6562 159.201C25.534 157.728 23.0451 155.74 21.1895 153.237C19.3633 150.703 18.4502 147.567 18.4502 143.826C18.4502 140.262 19.4222 137.095 21.3662 134.327C23.3102 131.558 26.1231 129.437 29.8049 127.965C33.4867 126.462 37.8165 125.711 42.7943 125.711C46.7707 125.711 50.2021 126.212 53.0886 127.214C56.0046 128.186 58.4199 129.496 60.3344 131.146C62.249 132.766 63.6481 134.474 64.5317 136.271C65.4153 138.067 65.8572 139.82 65.8572 141.528C65.8572 143.089 65.2975 144.503 64.1783 145.77C63.0884 147.007 61.7188 147.625 60.0694 147.625C58.5672 147.625 57.4185 147.257 56.6232 146.521C55.8574 145.755 55.0179 144.518 54.1048 142.81C52.9266 140.365 51.5128 138.465 49.8634 137.11C48.2139 135.726 45.563 135.034 41.9107 135.034C38.5234 135.034 35.7841 135.785 33.6929 137.287C31.6311 138.76 30.6002 140.542 30.6002 142.633C30.6002 143.929 30.9536 145.048 31.6605 145.991C32.3674 146.933 33.3394 147.743 34.5765 148.421C35.8136 149.098 37.0654 149.628 38.332 150.011C39.5985 150.394 41.6898 150.954 44.6058 151.69C48.2581 152.544 51.557 153.487 54.5025 154.518C57.4774 155.549 59.9957 156.801 62.0575 158.273C64.1488 159.746 65.7688 161.616 66.9175 163.884C68.0957 166.123 68.6848 168.877 68.6848 172.146Z" fill="#11024D"/>
<path d="M85.8186 128.406V146.3C87.3502 144.533 88.8376 143.134 90.2809 142.103C91.7536 141.072 93.3736 140.306 95.1409 139.805C96.9082 139.275 98.808 139.01 100.84 139.01C103.904 139.01 106.613 139.658 108.97 140.954C111.356 142.25 113.226 144.135 114.581 146.609C115.435 148.053 116.009 149.673 116.304 151.469C116.598 153.237 116.746 155.284 116.746 157.611V180.718C116.746 183.133 116.186 184.959 115.067 186.196C113.977 187.433 112.519 188.052 110.693 188.052C106.716 188.052 104.728 185.607 104.728 180.718V160.35C104.728 156.491 104.154 153.531 103.005 151.469C101.857 149.378 99.6769 148.332 96.4663 148.332C94.3162 148.332 92.3722 148.951 90.6344 150.188C88.926 151.396 87.6447 153.06 86.7906 155.181C86.1426 156.977 85.8186 160.173 85.8186 164.768V180.718C85.8186 183.103 85.2736 184.93 84.1838 186.196C83.1235 187.433 81.636 188.052 79.7215 188.052C75.7451 188.052 73.7569 185.607 73.7569 180.718V128.406C73.7569 125.962 74.2724 124.136 75.3033 122.928C76.3637 121.691 77.8364 121.072 79.7215 121.072C81.636 121.072 83.1235 121.691 84.1838 122.928C85.2736 124.165 85.8186 125.991 85.8186 128.406Z" fill="#11024D"/>
<path d="M134.427 150.497V185.357C134.427 187.772 133.853 189.598 132.704 190.835C131.555 192.072 130.097 192.691 128.33 192.691C126.563 192.691 125.12 192.058 124 190.791C122.91 189.524 122.366 187.713 122.366 185.357V150.851C122.366 148.465 122.91 146.668 124 145.461C125.12 144.253 126.563 143.649 128.33 143.649C130.097 143.649 131.555 144.253 132.704 145.461C133.853 146.668 134.427 148.347 134.427 150.497ZM128.463 138.038C126.784 138.038 125.34 137.523 124.133 136.492C122.955 135.461 122.366 134.003 122.366 132.118C122.366 130.409 122.969 129.01 124.177 127.92C125.414 126.801 126.843 126.242 128.463 126.242C130.024 126.242 131.408 126.742 132.616 127.744C133.823 128.745 134.427 130.203 134.427 132.118C134.427 133.973 133.838 135.431 132.66 136.492C131.482 137.523 130.083 138.038 128.463 138.038Z" fill="#11024D"/>
<path d="M154.447 148.774V150.232C156.568 147.434 158.88 145.387 161.384 144.091C163.917 142.765 166.818 142.103 170.088 142.103C173.269 142.103 176.111 142.795 178.615 144.179C181.118 145.564 182.989 147.522 184.226 150.055C185.021 151.528 185.537 153.119 185.772 154.827C186.008 156.535 186.126 158.715 186.126 161.366V183.81C186.126 186.226 185.566 188.052 184.447 189.289C183.357 190.526 181.928 191.144 180.161 191.144C178.365 191.144 176.907 190.511 175.787 189.245C174.668 187.978 174.108 186.167 174.108 183.81V163.708C174.108 159.731 173.549 156.697 172.429 154.606C171.34 152.485 169.145 151.425 165.846 151.425C163.696 151.425 161.737 152.073 159.97 153.369C158.203 154.636 156.907 156.388 156.082 158.627C155.493 160.423 155.199 163.781 155.199 168.7V183.81C155.199 186.255 154.624 188.096 153.475 189.333C152.356 190.541 150.898 191.144 149.101 191.144C147.364 191.144 145.935 190.511 144.816 189.245C143.697 187.978 143.137 186.167 143.137 183.81V148.951C143.137 146.653 143.638 144.945 144.639 143.826C145.641 142.677 147.01 142.103 148.748 142.103C149.808 142.103 150.766 142.353 151.62 142.854C152.474 143.355 153.151 144.106 153.652 145.107C154.182 146.109 154.447 147.331 154.447 148.774Z" fill="#11024D"/>
<path d="M225.593 161.896H202C202.03 164.635 202.575 167.051 203.635 169.142C204.725 171.233 206.153 172.809 207.921 173.869C209.717 174.93 211.691 175.46 213.841 175.46C215.284 175.46 216.595 175.298 217.773 174.974C218.981 174.62 220.144 174.09 221.264 173.383C222.383 172.647 223.414 171.866 224.356 171.042C225.299 170.217 226.521 169.098 228.023 167.684C228.642 167.154 229.526 166.889 230.674 166.889C231.911 166.889 232.913 167.227 233.679 167.905C234.444 168.582 234.827 169.54 234.827 170.777C234.827 171.866 234.4 173.148 233.546 174.62C232.692 176.064 231.396 177.463 229.658 178.818C227.95 180.143 225.785 181.248 223.163 182.131C220.571 183.015 217.582 183.457 214.194 183.457C206.448 183.457 200.425 181.248 196.124 176.83C191.824 172.411 189.674 166.417 189.674 158.848C189.674 155.284 190.204 151.985 191.264 148.951C192.325 145.888 193.871 143.266 195.903 141.087C197.936 138.907 200.439 137.243 203.414 136.094C206.389 134.916 209.688 134.327 213.311 134.327C218.024 134.327 222.059 135.328 225.417 137.331C228.804 139.305 231.337 141.867 233.016 145.019C234.695 148.17 235.534 151.381 235.534 154.65C235.534 157.684 234.665 159.658 232.928 160.571C231.19 161.454 228.745 161.896 225.593 161.896ZM202 155.048H223.87C223.576 150.924 222.456 147.846 220.512 145.814C218.598 143.752 216.065 142.721 212.913 142.721C209.909 142.721 207.435 143.767 205.491 145.858C203.576 147.92 202.413 150.983 202 155.048Z" fill="#11024D"/>
<path d="M126.622 106.747C127.074 105.358 129.039 105.358 129.49 106.747L130.97 111.296C133.208 118.18 138.604 123.576 145.487 125.814L150.037 127.293C151.426 127.745 151.426 129.71 150.037 130.162L145.487 131.641C138.604 133.879 133.208 139.276 130.97 146.159L129.849 149.605C129.284 151.341 126.828 151.341 126.264 149.605L125.143 146.159C122.905 139.276 117.508 133.879 110.625 131.641L106.076 130.162C104.687 129.71 104.687 127.745 106.076 127.293L110.625 125.814C117.508 123.576 122.905 118.18 125.143 111.296L126.622 106.747Z" fill="#F5BF00"/>
<path fill-rule="evenodd" clip-rule="evenodd" d="M124.786 112.313C124.639 112.7 124.482 113.083 124.315 113.46C124.208 113.701 124.097 113.94 123.983 114.176C121.767 118.745 118.073 122.438 113.505 124.654C113.269 124.769 113.03 124.879 112.789 124.986C112.412 125.153 112.029 125.31 111.641 125.457C111.306 125.584 110.968 125.703 110.625 125.814L106.076 127.293C104.687 127.745 104.687 129.71 106.076 130.162L110.625 131.641C110.968 131.752 111.306 131.871 111.641 131.998C112.029 132.145 112.412 132.302 112.789 132.469C113.03 132.576 113.269 132.686 113.505 132.801C118.073 135.017 121.767 138.711 123.983 143.279C124.097 143.515 124.208 143.754 124.315 143.995C124.396 144.179 124.475 144.364 124.552 144.55C124.768 145.077 124.966 145.613 125.143 146.159L126.264 149.605C126.828 151.341 129.284 151.341 129.849 149.605L130.97 146.159C131.147 145.613 131.344 145.077 131.561 144.55C131.637 144.364 131.716 144.179 131.798 143.995C131.904 143.754 132.015 143.515 132.13 143.279C134.346 138.711 138.039 135.017 142.608 132.801C142.844 132.686 143.083 132.576 143.324 132.469C143.701 132.302 144.083 132.145 144.471 131.998C144.806 131.871 145.145 131.752 145.487 131.641L150.037 130.162C151.426 129.71 151.426 127.745 150.037 127.293L145.487 125.814C145.145 125.703 144.806 125.584 144.471 125.457C144.083 125.31 143.701 125.153 143.324 124.986C143.083 124.879 142.844 124.769 142.608 124.654C138.039 122.438 134.346 118.745 132.13 114.176C132.015 113.94 131.904 113.701 131.798 113.46C131.631 113.083 131.474 112.7 131.327 112.313C131.2 111.978 131.081 111.639 130.97 111.296L129.49 106.747C129.039 105.358 127.074 105.358 126.622 106.747L125.143 111.296C125.032 111.639 124.912 111.978 124.786 112.313ZM136.661 104.416L138.14 108.965C139.632 113.554 143.23 117.151 147.819 118.643L152.368 120.123C160.702 122.832 160.702 134.623 152.368 137.333L147.819 138.812C143.23 140.304 139.632 143.901 138.14 148.49L137.02 151.937C134.197 160.618 121.915 160.618 119.093 151.937L117.972 148.49C116.48 143.901 112.882 140.304 108.294 138.812L103.744 137.333C95.4102 134.623 95.4103 122.832 103.744 120.123L108.294 118.643C112.882 117.151 116.48 113.554 117.972 108.965L119.451 104.416C122.161 96.0815 133.951 96.0816 136.661 104.416Z" fill="white"/>
<path d="M65.8484 95.6589C65.8484 104.566 64.0418 113.252 56.134 117.351C54.2957 118.304 52.4282 119.095 50.5466 119.6C46.9238 120.572 42.9769 121.058 38.706 121.058C33.7282 121.058 29.1922 120.292 25.0981 118.76C21.0039 117.228 17.5136 115.005 14.6271 112.089C11.7405 109.173 9.51673 105.638 7.95564 101.485C6.42402 97.3319 5.6582 92.6929 5.6582 87.5678C5.6582 82.5311 6.40929 77.9214 7.91146 73.7389C9.41364 69.5564 11.6227 66.0071 14.5387 63.0911C17.4547 60.1751 21.0039 57.9513 25.1864 56.4197C29.369 54.8586 34.1111 54.078 39.4129 54.078C43.7721 54.078 47.6307 54.6671 50.9885 55.8453C54.3463 56.994 57.0708 58.452 59.1621 60.2193C61.2533 61.9866 62.8291 63.8569 63.8895 65.8304C64.9498 67.8038 65.48 69.5564 65.48 71.088C65.48 72.7375 64.8615 74.1513 63.6244 75.3294C62.4168 76.4782 60.9588 77.0525 59.2504 77.0525C58.3079 77.0525 57.3948 76.8316 56.5112 76.3898C55.657 75.948 54.9354 75.3294 54.3463 74.5342C52.7263 72.0011 51.3566 70.0866 50.2374 68.7906C49.1181 67.4946 47.6012 66.4047 45.6867 65.5211C43.8016 64.6375 41.3864 64.1957 38.4409 64.1957C35.4071 64.1957 32.6973 64.7258 30.3115 65.7862C27.9257 66.8171 25.8786 68.334 24.1703 70.3369C22.4914 72.3104 21.1954 74.7404 20.2823 77.6269C19.3987 80.5134 18.9568 83.7092 18.9568 87.2143C18.9568 94.8136 20.6947 100.66 24.1703 104.754C27.6753 108.849 32.55 110.896 38.7944 110.896C41.8282 110.896 44.6705 110.498 47.3214 109.703C48.7689 109.273 50.225 108.307 51.6896 107.277C53.9601 105.68 55.4508 103.067 55.4508 100.292V97.6707C55.4508 96.6296 54.6068 95.7856 53.5657 95.7856H45.289C42.8443 95.7856 40.9887 95.4174 39.7222 94.681C38.4851 93.9447 37.8666 92.6929 37.8666 90.9256C37.8666 89.4823 38.382 88.2894 39.4129 87.3469C40.4733 86.4043 41.9018 85.9331 43.6985 85.9331H56.7026C61.6459 85.9331 65.6905 89.8688 65.8253 94.8102L65.8484 95.6589Z" fill="#11024D"/>
<path d="M120.515 96.5367C120.515 100.13 119.956 103.444 118.837 106.478C117.717 109.511 116.097 112.118 113.977 114.298C111.856 116.477 109.323 118.156 106.377 119.334C103.432 120.483 100.118 121.058 96.4365 121.058C92.7842 121.058 89.5 120.468 86.5841 119.29C83.6681 118.112 81.135 116.433 78.9848 114.254C76.8641 112.044 75.2441 109.452 74.1249 106.478C73.0351 103.473 72.4901 100.16 72.4901 96.5367C72.4901 92.8843 73.0498 89.5412 74.1691 86.5074C75.2883 83.4736 76.8936 80.8816 78.9848 78.7314C81.0761 76.5813 83.6092 74.9318 86.5841 73.7831C89.559 72.6049 92.8431 72.0158 96.4365 72.0158C100.089 72.0158 103.402 72.6049 106.377 73.7831C109.352 74.9613 111.9 76.6402 114.021 78.8198C116.142 80.9994 117.747 83.5914 118.837 86.5958C119.956 89.6001 120.515 92.9138 120.515 96.5367ZM108.41 96.5367C108.41 91.6178 107.32 87.7887 105.14 85.0494C102.99 82.3102 100.089 80.9405 96.4365 80.9405C94.0802 80.9405 92.0036 81.5591 90.2069 82.7962C88.4102 84.0038 87.0259 85.8005 86.0539 88.1863C85.0819 90.5721 84.5959 93.3556 84.5959 96.5367C84.5959 99.6883 85.0672 102.442 86.0097 104.799C86.9817 107.155 88.3513 108.966 90.1186 110.233C91.9153 111.47 94.0213 112.089 96.4365 112.089C100.089 112.089 102.99 110.719 105.14 107.98C107.32 105.211 108.41 101.397 108.41 96.5367Z" fill="#11024D"/>
<path d="M199.601 121.706V120.513C197.981 122.368 196.376 123.885 194.785 125.063C193.224 126.212 191.516 127.081 189.66 127.67C187.834 128.289 185.831 128.598 183.652 128.598C180.765 128.598 178.085 127.994 175.611 126.786C173.166 125.549 171.045 123.797 169.248 121.529C167.452 119.261 166.082 116.595 165.139 113.532C164.226 110.469 163.77 107.155 163.77 103.591C163.77 96.0507 165.611 90.1745 169.293 85.9625C172.974 81.7505 177.82 79.6445 183.828 79.6445C187.304 79.6445 190.235 80.2483 192.62 81.456C195.006 82.6342 197.333 84.4603 199.601 86.9345V69.1293C199.601 66.6551 200.087 64.7847 201.059 63.5182C202.061 62.2517 203.474 61.6184 205.301 61.6184C207.127 61.6184 208.526 62.2075 209.498 63.3857C210.499 64.5344 211 66.2427 211 68.5107V121.706C211 124.003 210.47 125.726 209.41 126.875C208.349 128.024 206.98 128.598 205.301 128.598C203.651 128.598 202.282 128.009 201.192 126.831C200.131 125.623 199.601 123.915 199.601 121.706ZM175.876 103.989C175.876 107.258 176.376 110.042 177.378 112.339C178.409 114.636 179.808 116.374 181.575 117.552C183.342 118.701 185.272 119.276 187.363 119.276C189.484 119.276 191.413 118.731 193.151 117.641C194.918 116.522 196.317 114.828 197.348 112.56C198.408 110.262 198.938 107.405 198.938 103.989C198.938 100.778 198.408 98.0241 197.348 95.7267C196.317 93.3998 194.903 91.6325 193.106 90.4249C191.339 89.1878 189.395 88.5692 187.274 88.5692C185.065 88.5692 183.092 89.2025 181.354 90.469C179.616 91.7061 178.261 93.5029 177.289 95.8592C176.347 98.1861 175.876 100.896 175.876 103.989Z" fill="#11024D"/>
<path fill-rule="evenodd" clip-rule="evenodd" d="M145.501 92.8791C147.826 99.9504 151.387 103.73 155.486 104.792C158.711 105.627 160.649 108.918 159.814 112.143C158.979 115.368 155.688 117.306 152.463 116.471C142.656 113.932 136.966 105.545 134.04 96.6475C132.944 93.3129 132.168 89.7334 131.682 86.0389C131.632 86.0653 131.584 86.0906 131.538 86.1148C131.309 86.2357 131.13 86.3291 131.005 86.3936L130.86 86.4686L130.82 86.4894L130.807 86.4957C130.807 86.4957 130.801 86.4991 128.056 81.1273L130.807 86.4957C127.841 88.0114 124.2 86.8385 122.684 83.8717C121.169 80.9054 122.345 77.2722 125.311 75.7561L125.34 75.7412L125.452 75.6832L125.916 75.4405C126.327 75.2237 126.936 74.8994 127.707 74.4791C128.636 73.9724 129.798 73.3274 131.13 72.5643C131.213 70.6359 131.361 68.7177 131.572 66.8269C132.681 56.8588 135.597 46.8969 140.386 39.765C142.798 36.1737 145.903 32.9786 149.819 31.0769C153.89 29.1003 158.455 28.7176 163.135 30.2266L163.639 30.3889L164.106 30.6363C168.242 32.8251 171.522 35.7551 173.186 39.6614C174.889 43.6612 174.484 47.7008 173.169 51.1973C170.711 57.7336 164.556 63.7976 158.634 68.6076C153.583 72.7099 147.993 76.4504 143.196 79.4191C143.432 84.2873 144.196 88.9106 145.501 92.8791ZM144.077 64.4329C146.443 62.792 148.807 61.0461 151.028 59.2426C156.799 54.5552 160.645 50.2256 161.877 46.9502C162.407 45.5408 162.269 44.8199 162.086 44.3895C161.878 43.9001 161.199 42.8466 158.959 41.5717C157.443 41.1837 156.227 41.3772 155.089 41.9296C153.681 42.6133 152.052 44.0334 150.402 46.4911C147.544 50.7463 145.284 57.1346 144.077 64.4329Z" fill="#11024D"/>
<path d="M33.7428 209.259H30.6382C30.6162 209.002 30.5575 208.769 30.4621 208.56C30.3703 208.35 30.2419 208.171 30.0767 208.02C29.9153 207.866 29.7189 207.748 29.4877 207.668C29.2566 207.583 28.9942 207.541 28.7006 207.541C28.1868 207.541 27.752 207.666 27.396 207.915C27.0437 208.165 26.7758 208.523 26.5923 208.989C26.4125 209.455 26.3226 210.015 26.3226 210.668C26.3226 211.358 26.4144 211.936 26.5978 212.402C26.785 212.864 27.0547 213.213 27.407 213.448C27.7593 213.679 28.1832 213.794 28.6786 213.794C28.9611 213.794 29.2144 213.759 29.4382 213.69C29.6621 213.616 29.8566 213.512 30.0217 213.376C30.1868 213.24 30.3208 213.077 30.4235 212.886C30.5299 212.692 30.6015 212.473 30.6382 212.231L33.7428 212.253C33.7061 212.73 33.5721 213.216 33.3409 213.712C33.1098 214.204 32.7813 214.659 32.3556 215.077C31.9336 215.492 31.4107 215.826 30.7868 216.079C30.163 216.332 29.4382 216.459 28.6125 216.459C27.5777 216.459 26.6492 216.237 25.8272 215.793C25.0089 215.348 24.3612 214.695 23.8841 213.833C23.4107 212.97 23.174 211.915 23.174 210.668C23.174 209.413 23.4162 208.356 23.9006 207.497C24.385 206.635 25.0382 205.983 25.8602 205.543C26.6822 205.099 27.5997 204.877 28.6125 204.877C29.3244 204.877 29.9795 204.974 30.5776 205.169C31.1758 205.363 31.7006 205.648 32.152 206.022C32.6033 206.393 32.9666 206.849 33.2419 207.393C33.5171 207.936 33.6841 208.558 33.7428 209.259Z" fill="#11024D"/>
<path d="M44.4318 216.304V205.031H47.4924V213.838H52.0501V216.304H44.4318Z" fill="#11024D"/>
<path d="M62.5878 216.304V205.031H70.7126V207.497H65.6484V209.435H70.2942V211.901H65.6484V213.838H70.6906V216.304H62.5878Z" fill="#11024D"/>
<path d="M84.4594 216.304H81.1567L84.8778 205.031H89.0612L92.7823 216.304H89.4796L87.0135 208.136H86.9255L84.4594 216.304ZM83.8429 211.857H90.052V214.147H83.8429V211.857Z" fill="#11024D"/>
<path d="M112.923 205.031V216.304H110.369L106.295 210.382H106.229V216.304H103.169V205.031H105.767L109.774 210.932H109.862V205.031H112.923Z" fill="#11024D"/>
<path d="M126.731 205.031V216.304H123.671V205.031H126.731Z" fill="#11024D"/>
<path d="M147.237 205.031V216.304H144.682L140.609 210.382H140.543V216.304H137.482V205.031H140.081L144.088 210.932H144.176V205.031H147.237Z" fill="#11024D"/>
<path d="M165.306 208.752C165.258 208.558 165.183 208.387 165.08 208.24C164.977 208.09 164.849 207.963 164.695 207.86C164.544 207.754 164.368 207.675 164.166 207.624C163.968 207.569 163.75 207.541 163.511 207.541C162.998 207.541 162.559 207.664 162.196 207.91C161.836 208.156 161.561 208.51 161.37 208.972C161.183 209.435 161.089 209.993 161.089 210.646C161.089 211.306 161.179 211.871 161.359 212.341C161.539 212.811 161.807 213.171 162.163 213.42C162.519 213.67 162.961 213.794 163.489 213.794C163.955 213.794 164.343 213.726 164.651 213.591C164.963 213.455 165.196 213.262 165.35 213.013C165.504 212.763 165.581 212.47 165.581 212.132L166.11 212.187H163.533V210.007H168.532V211.571C168.532 212.598 168.313 213.477 167.876 214.207C167.443 214.934 166.845 215.492 166.082 215.881C165.322 216.266 164.451 216.459 163.467 216.459C162.37 216.459 161.407 216.226 160.577 215.759C159.748 215.293 159.1 214.629 158.634 213.767C158.172 212.904 157.941 211.879 157.941 210.69C157.941 209.758 158.082 208.932 158.365 208.213C158.651 207.493 159.047 206.886 159.554 206.391C160.06 205.892 160.645 205.515 161.31 205.262C161.974 205.005 162.686 204.877 163.445 204.877C164.113 204.877 164.733 204.972 165.306 205.163C165.882 205.35 166.39 205.618 166.831 205.967C167.275 206.312 167.632 206.721 167.904 207.194C168.176 207.668 168.341 208.187 168.399 208.752H165.306Z" fill="#11024D"/>
<path d="M202.172 209.259H199.068C199.046 209.002 198.987 208.769 198.892 208.56C198.8 208.35 198.672 208.171 198.506 208.02C198.345 207.866 198.149 207.748 197.917 207.668C197.686 207.583 197.424 207.541 197.13 207.541C196.616 207.541 196.182 207.666 195.826 207.915C195.473 208.165 195.205 208.523 195.022 208.989C194.842 209.455 194.752 210.015 194.752 210.668C194.752 211.358 194.844 211.936 195.027 212.402C195.215 212.864 195.484 213.213 195.837 213.448C196.189 213.679 196.613 213.794 197.108 213.794C197.391 213.794 197.644 213.759 197.868 213.69C198.092 213.616 198.286 213.512 198.451 213.376C198.616 213.24 198.75 213.077 198.853 212.886C198.96 212.692 199.031 212.473 199.068 212.231L202.172 212.253C202.136 212.73 202.002 213.216 201.771 213.712C201.539 214.204 201.211 214.659 200.785 215.077C200.363 215.492 199.84 215.826 199.216 216.079C198.593 216.332 197.868 216.459 197.042 216.459C196.007 216.459 195.079 216.237 194.257 215.793C193.439 215.348 192.791 214.695 192.314 213.833C191.84 212.97 191.604 211.915 191.604 210.668C191.604 209.413 191.846 208.356 192.33 207.497C192.815 206.635 193.468 205.983 194.29 205.543C195.112 205.099 196.029 204.877 197.042 204.877C197.754 204.877 198.409 204.974 199.007 205.169C199.605 205.363 200.13 205.648 200.582 206.022C201.033 206.393 201.396 206.849 201.672 207.393C201.947 207.936 202.114 208.558 202.172 209.259Z" fill="#11024D"/>
<path d="M223.783 210.668C223.783 211.923 223.539 212.982 223.05 213.844C222.562 214.703 221.904 215.354 221.074 215.798C220.245 216.238 219.32 216.459 218.3 216.459C217.272 216.459 216.344 216.237 215.515 215.793C214.689 215.345 214.032 214.692 213.544 213.833C213.06 212.97 212.817 211.915 212.817 210.668C212.817 209.413 213.06 208.356 213.544 207.497C214.032 206.635 214.689 205.983 215.515 205.543C216.344 205.099 217.272 204.877 218.3 204.877C219.32 204.877 220.245 205.099 221.074 205.543C221.904 205.983 222.562 206.635 223.05 207.497C223.539 208.356 223.783 209.413 223.783 210.668ZM220.634 210.668C220.634 209.993 220.544 209.424 220.364 208.961C220.188 208.495 219.926 208.143 219.577 207.904C219.232 207.662 218.806 207.541 218.3 207.541C217.794 207.541 217.366 207.662 217.017 207.904C216.672 208.143 216.41 208.495 216.23 208.961C216.054 209.424 215.966 209.993 215.966 210.668C215.966 211.343 216.054 211.914 216.23 212.38C216.41 212.842 216.672 213.194 217.017 213.437C217.366 213.675 217.794 213.794 218.3 213.794C218.806 213.794 219.232 213.675 219.577 213.437C219.926 213.194 220.188 212.842 220.364 212.38C220.544 211.914 220.634 211.343 220.634 210.668Z" fill="#11024D"/>
<path d="M235.483 216.481C235.057 216.481 234.692 216.332 234.388 216.035C234.087 215.734 233.938 215.369 233.942 214.939C233.938 214.521 234.087 214.163 234.388 213.866C234.692 213.569 235.057 213.42 235.483 213.42C235.887 213.42 236.243 213.569 236.551 213.866C236.863 214.163 237.021 214.521 237.024 214.939C237.021 215.226 236.945 215.486 236.799 215.721C236.656 215.952 236.468 216.137 236.237 216.277C236.006 216.413 235.755 216.481 235.483 216.481Z" fill="#11024D"/>
</g>
<defs>
<clipPath id="clip0_1_116">
<rect width="262" height="225" fill="white" transform="translate(0 0.36499)"/>
</clipPath>
</defs>
</svg>
