<svg width="75" height="53" viewBox="0 0 75 53" fill="none" xmlns="http://www.w3.org/2000/svg">
<path d="M20.4113 46.3032C20.4113 47.5719 20.0822 48.7118 19.424 49.7229C18.7754 50.734 17.8215 51.5257 16.5623 52.0981C15.3032 52.6704 13.8104 52.9566 12.0838 52.9566C10.0139 52.9566 8.30643 52.5655 6.96145 51.7833C6.00756 51.2205 5.23014 50.4717 4.62919 49.5369C4.03778 48.5925 3.74208 47.6768 3.74208 46.7897C3.74208 46.2746 3.91855 45.8358 4.27148 45.4733C4.63396 45.1013 5.09183 44.9153 5.64508 44.9153C6.09341 44.9153 6.4702 45.0584 6.77544 45.3445C7.09023 45.6307 7.35732 46.0552 7.57671 46.618C7.8438 47.2857 8.12996 47.8437 8.43521 48.2921C8.74999 48.7404 9.18878 49.1124 9.75158 49.4081C10.3144 49.6943 11.0536 49.8374 11.9694 49.8374C13.2285 49.8374 14.2492 49.5464 15.0314 48.9645C15.8231 48.3731 16.2189 47.6386 16.2189 46.7611C16.2189 46.0647 16.0043 45.5019 15.5751 45.0727C15.1554 44.6339 14.6069 44.3 13.9296 44.0711C13.2619 43.8422 12.3652 43.5989 11.2396 43.3414C9.7325 42.9884 8.46859 42.5783 7.44793 42.1109C6.43681 41.6339 5.63078 40.99 5.02983 40.1792C4.43841 39.3589 4.14271 38.343 4.14271 37.1316C4.14271 35.9774 4.45749 34.9519 5.08706 34.0553C5.71663 33.1586 6.62759 32.4718 7.81995 31.9949C9.01231 31.5084 10.4145 31.2651 12.0266 31.2651C13.3144 31.2651 14.4256 31.4273 15.3604 31.7516C16.3048 32.0664 17.087 32.4909 17.707 33.0251C18.327 33.5497 18.7801 34.103 19.0663 34.6848C19.3525 35.2667 19.4955 35.8343 19.4955 36.3875C19.4955 36.8931 19.3143 37.3509 18.9518 37.7611C18.5989 38.1618 18.1553 38.3621 17.6212 38.3621C17.1347 38.3621 16.7627 38.2428 16.5051 38.0044C16.2571 37.7563 15.9852 37.3557 15.6895 36.8025C15.308 36.0107 14.8501 35.3955 14.3159 34.9567C13.7818 34.5084 12.9233 34.2842 11.7404 34.2842C10.6435 34.2842 9.75634 34.5274 9.07908 35.0139C8.41136 35.4909 8.0775 36.068 8.0775 36.7452C8.0775 37.1649 8.19197 37.5274 8.4209 37.8327C8.64983 38.1379 8.96462 38.4002 9.36525 38.6196C9.76588 38.839 10.1713 39.0107 10.5815 39.1347C10.9916 39.2587 11.6689 39.44 12.6132 39.6784C13.7961 39.9551 14.8644 40.2603 15.8183 40.5942C16.7817 40.928 17.5973 41.3334 18.265 41.8104C18.9423 42.2873 19.4669 42.893 19.8389 43.6275C20.2205 44.3525 20.4113 45.2444 20.4113 46.3032Z" fill="#11024D"/>
<path d="M25.9601 32.1379V37.9328C26.4561 37.3605 26.9378 36.9074 27.4052 36.5735C27.8822 36.2397 28.4068 35.9917 28.9791 35.8295C29.5515 35.6578 30.1667 35.5719 30.8249 35.5719C31.817 35.5719 32.6945 35.7818 33.4576 36.2015C34.2303 36.6212 34.836 37.2317 35.2748 38.033C35.5514 38.5004 35.7374 39.025 35.8328 39.6069C35.9282 40.1792 35.9759 40.8422 35.9759 41.5958V49.079C35.9759 49.8612 35.7947 50.4526 35.4322 50.8532C35.0793 51.2539 34.6071 51.4542 34.0157 51.4542C32.7279 51.4542 32.084 50.6625 32.084 49.079V42.4829C32.084 41.2333 31.898 40.2746 31.526 39.6069C31.154 38.9296 30.4481 38.591 29.4084 38.591C28.7121 38.591 28.0825 38.7913 27.5197 39.192C26.9664 39.583 26.5515 40.122 26.2749 40.8088C26.065 41.3907 25.9601 42.4256 25.9601 43.9137V49.079C25.9601 49.8517 25.7836 50.4431 25.4307 50.8532C25.0873 51.2539 24.6056 51.4542 23.9855 51.4542C22.6978 51.4542 22.0539 50.6625 22.0539 49.079V32.1379C22.0539 31.3462 22.2208 30.7548 22.5547 30.3637C22.8981 29.9631 23.375 29.7628 23.9855 29.7628C24.6056 29.7628 25.0873 29.9631 25.4307 30.3637C25.7836 30.7643 25.9601 31.3558 25.9601 32.1379Z" fill="#11024D"/>
<path d="M41.7021 39.2921V50.5814C41.7021 51.3636 41.5161 51.955 41.1441 52.3556C40.772 52.7563 40.2999 52.9566 39.7275 52.9566C39.1552 52.9566 38.6878 52.7515 38.3253 52.3413C37.9724 51.9311 37.7959 51.3445 37.7959 50.5814V39.4066C37.7959 38.6339 37.9724 38.0521 38.3253 37.661C38.6878 37.2699 39.1552 37.0743 39.7275 37.0743C40.2999 37.0743 40.772 37.2699 41.1441 37.661C41.5161 38.0521 41.7021 38.5958 41.7021 39.2921ZM39.7705 35.2572C39.2267 35.2572 38.7593 35.0902 38.3682 34.7564C37.9867 34.4225 37.7959 33.9503 37.7959 33.3398C37.7959 32.7866 37.9915 32.3335 38.3825 31.9806C38.7832 31.6181 39.2458 31.4368 39.7705 31.4368C40.276 31.4368 40.7243 31.599 41.1154 31.9233C41.5065 32.2476 41.7021 32.7198 41.7021 33.3398C41.7021 33.9408 41.5113 34.413 41.1297 34.7564C40.7482 35.0902 40.2951 35.2572 39.7705 35.2572Z" fill="#11024D"/>
<path d="M48.1857 38.7341V39.2063C48.8725 38.3001 49.6213 37.6371 50.4321 37.2174C51.2524 36.7882 52.192 36.5735 53.2508 36.5735C54.281 36.5735 55.2015 36.7977 56.0123 37.246C56.8232 37.6943 57.4289 38.3287 57.8295 39.149C58.0871 39.626 58.254 40.1411 58.3303 40.6943C58.4066 41.2476 58.4448 41.9535 58.4448 42.812V50.0806C58.4448 50.8628 58.2635 51.4542 57.9011 51.8548C57.5481 52.2555 57.0855 52.4558 56.5131 52.4558C55.9313 52.4558 55.4591 52.2507 55.0966 51.8405C54.7341 51.4303 54.5529 50.8437 54.5529 50.0806V43.5703C54.5529 42.2826 54.3717 41.3 54.0092 40.6228C53.6562 39.936 52.9456 39.5926 51.8772 39.5926C51.1809 39.5926 50.5466 39.8024 49.9742 40.2222C49.4019 40.6323 48.9822 41.1999 48.7151 41.9248C48.5243 42.5067 48.4289 43.5942 48.4289 45.1871V50.0806C48.4289 50.8723 48.2429 51.4685 47.8709 51.8691C47.5084 52.2602 47.0363 52.4558 46.4544 52.4558C45.8916 52.4558 45.429 52.2507 45.0665 51.8405C44.704 51.4303 44.5228 50.8437 44.5228 50.0806V38.7913C44.5228 38.0473 44.6849 37.494 45.0092 37.1316C45.3336 36.7595 45.7771 36.5735 46.3399 36.5735C46.6833 36.5735 46.9933 36.6546 47.27 36.8168C47.5466 36.9789 47.766 37.2222 47.9281 37.5465C48.0998 37.8708 48.1857 38.2667 48.1857 38.7341Z" fill="#11024D"/>
<path d="M71.2264 42.9837H63.5858C63.5953 43.8708 63.7718 44.653 64.1152 45.3302C64.4681 46.0075 64.9308 46.5178 65.5031 46.8612C66.085 47.2046 66.7241 47.3763 67.4204 47.3763C67.8878 47.3763 68.3123 47.3239 68.6939 47.2189C69.085 47.1045 69.4617 46.9328 69.8242 46.7038C70.1867 46.4654 70.5206 46.2126 70.8258 45.9455C71.131 45.6784 71.5269 45.3159 72.0134 44.8581C72.2137 44.6864 72.4999 44.6005 72.8719 44.6005C73.2725 44.6005 73.5968 44.7102 73.8449 44.9296C74.0929 45.149 74.2169 45.459 74.2169 45.8596C74.2169 46.2126 74.0786 46.6275 73.8019 47.1045C73.5253 47.5719 73.1056 48.025 72.5428 48.4638C71.9895 48.893 71.2884 49.2507 70.4395 49.5369C69.6 49.823 68.6319 49.9661 67.5349 49.9661C65.0262 49.9661 63.0755 49.2507 61.6828 47.8199C60.2901 46.389 59.5938 44.4479 59.5938 41.9964C59.5938 40.8422 59.7655 39.7738 60.1089 38.7913C60.4523 37.7993 60.953 36.9503 61.6112 36.2444C62.2694 35.5386 63.0802 34.9996 64.0436 34.6276C65.0071 34.246 66.0754 34.0553 67.2487 34.0553C68.7749 34.0553 70.0818 34.3796 71.1692 35.0282C72.2662 35.6673 73.0865 36.4972 73.6302 37.5179C74.1739 38.5385 74.4458 39.5783 74.4458 40.6371C74.4458 41.6196 74.1644 42.2587 73.6016 42.5544C73.0388 42.8406 72.2471 42.9837 71.2264 42.9837ZM63.5858 40.7659H70.6684C70.573 39.4304 70.2105 38.4336 69.581 37.7754C68.9609 37.1077 68.1406 36.7738 67.1199 36.7738C66.147 36.7738 65.3457 37.1125 64.7161 37.7897C64.0961 38.4575 63.7193 39.4495 63.5858 40.7659Z" fill="#11024D"/>
<path d="M39.1744 25.1236C39.3207 24.6737 39.957 24.6737 40.1033 25.1236L40.5823 26.5968C41.3071 28.826 43.0548 30.5737 45.284 31.2985L46.7572 31.7775C47.2071 31.9238 47.2071 32.5601 46.7572 32.7064L45.284 33.1854C43.0548 33.9102 41.3071 35.6579 40.5823 37.887L40.2194 39.0032C40.0366 39.5655 39.2411 39.5655 39.0583 39.0032L38.6954 37.887C37.9706 35.6579 36.2229 33.9102 33.9938 33.1854L32.5205 32.7064C32.0706 32.5601 32.0706 31.9238 32.5205 31.7775L33.9938 31.2985C36.2229 30.5737 37.9706 28.826 38.6954 26.5968L39.1744 25.1236Z" fill="#F5BF00"/>
<path fill-rule="evenodd" clip-rule="evenodd" d="M38.5797 26.9259C38.5321 27.0515 38.4812 27.1755 38.4272 27.2976C38.3926 27.3756 38.3568 27.4529 38.3197 27.5294C37.602 29.0089 36.4058 30.2051 34.9263 30.9228C34.8498 30.9599 34.7725 30.9957 34.6945 31.0303C34.5724 31.0843 34.4484 31.1352 34.3228 31.1828C34.2144 31.2238 34.1047 31.2624 33.9938 31.2985L32.5205 31.7775C32.0706 31.9238 32.0706 32.5601 32.5205 32.7064L33.9938 33.1854C34.1047 33.2215 34.2144 33.2601 34.3228 33.3011C34.4484 33.3487 34.5724 33.3996 34.6945 33.4536C34.7725 33.4882 34.8498 33.524 34.9263 33.5611C36.4058 34.2788 37.602 35.475 38.3197 36.9544C38.3568 37.031 38.3926 37.1083 38.4272 37.1863C38.4535 37.2459 38.4791 37.3058 38.504 37.3662C38.574 37.5366 38.6379 37.7103 38.6954 37.887L39.0583 39.0032C39.2411 39.5655 40.0366 39.5655 40.2194 39.0032L40.5823 37.887C40.6398 37.7103 40.7037 37.5366 40.7737 37.3662C40.7986 37.3058 40.8242 37.2458 40.8505 37.1863C40.8851 37.1083 40.9209 37.031 40.958 36.9544C41.6757 35.475 42.8719 34.2788 44.3514 33.5611C44.4279 33.524 44.5052 33.4882 44.5832 33.4536C44.7053 33.3996 44.8293 33.3487 44.9549 33.3011C45.0633 33.2601 45.1731 33.2215 45.284 33.1854L46.7572 32.7064C47.2071 32.5601 47.2071 31.9238 46.7572 31.7775L45.284 31.2985C45.1731 31.2624 45.0633 31.2238 44.9549 31.1828C44.8293 31.1352 44.7053 31.0843 44.5832 31.0303C44.5052 30.9957 44.4279 30.9599 44.3514 30.9228C42.8719 30.2051 41.6757 29.0089 40.958 27.5294C40.9209 27.4529 40.8851 27.3756 40.8505 27.2976C40.7965 27.1755 40.7456 27.0515 40.6981 26.9259C40.657 26.8175 40.6184 26.7078 40.5823 26.5968L40.1033 25.1236C39.957 24.6737 39.3207 24.6737 39.1744 25.1236L38.6954 26.5968C38.6593 26.7077 38.6207 26.8175 38.5797 26.9259ZM42.4256 24.3685L42.9046 25.8418C43.3878 27.3278 44.553 28.493 46.039 28.9762L47.5123 29.4552C50.2113 30.3328 50.2113 34.1511 47.5123 35.0287L46.039 35.5077C44.553 35.9909 43.3878 37.156 42.9046 38.6421L42.5417 39.7583C41.6276 42.5698 37.6501 42.5697 36.736 39.7583L36.3731 38.6421C35.8899 37.156 34.7248 35.9909 33.2387 35.5077L31.7654 35.0287C29.0664 34.1511 29.0664 30.3328 31.7654 29.4552L33.2387 28.9762C34.7248 28.493 35.8899 27.3278 36.3731 25.8418L36.8521 24.3685C37.7297 21.6695 41.548 21.6695 42.4256 24.3685Z" fill="white"/>
<path d="M19.4927 21.5326C19.4927 24.4171 18.9076 27.2302 16.3467 28.5576C15.7514 28.8661 15.1466 29.1223 14.5372 29.2858C13.3639 29.6006 12.0857 29.758 10.7026 29.758C9.09053 29.758 7.62154 29.51 6.29564 29.014C4.96974 28.5179 3.83939 27.7978 2.90458 26.8534C1.96977 25.9091 1.24959 24.7644 0.744031 23.4194C0.24801 22.0744 0 20.572 0 18.9123C0 17.2811 0.243241 15.7883 0.729722 14.4338C1.2162 13.0792 1.93162 11.9298 2.87596 10.9855C3.82031 10.0411 4.96974 9.32093 6.32426 8.8249C7.67878 8.31934 9.21453 8.06656 10.9315 8.06656C12.3433 8.06656 13.5929 8.25734 14.6803 8.6389C15.7677 9.01091 16.6501 9.48309 17.3273 10.0554C18.0046 10.6278 18.5149 11.2335 18.8583 11.8726C19.2017 12.5117 19.3734 13.0792 19.3734 13.5753C19.3734 14.1094 19.1731 14.5673 18.7725 14.9489C18.3814 15.3209 17.9092 15.5069 17.3559 15.5069C17.0507 15.5069 16.755 15.4354 16.4688 15.2923C16.1922 15.1492 15.9585 14.9489 15.7677 14.6913C15.2431 13.871 14.7995 13.2509 14.4371 12.8312C14.0746 12.4115 13.5833 12.0586 12.9633 11.7724C12.3528 11.4863 11.5706 11.3432 10.6167 11.3432C9.63424 11.3432 8.75667 11.5149 7.98402 11.8583C7.21137 12.1921 6.54842 12.6834 5.99517 13.332C5.45145 13.9711 5.03174 14.7581 4.73604 15.6929C4.44987 16.6277 4.30679 17.6627 4.30679 18.7978C4.30679 21.2588 4.86958 23.1523 5.99517 24.4782C7.13029 25.8041 8.70897 26.4671 10.7312 26.4671C11.7137 26.4671 12.6342 26.3383 13.4927 26.0808C13.9615 25.9417 14.433 25.6287 14.9074 25.2951C15.6426 24.778 16.1254 23.9318 16.1254 23.0329V22.1841C16.1254 21.847 15.8521 21.5736 15.5149 21.5736H12.8345C12.0428 21.5736 11.4419 21.4544 11.0317 21.2159C10.6311 20.9774 10.4307 20.572 10.4307 19.9997C10.4307 19.5323 10.5977 19.146 10.9315 18.8407C11.2749 18.5355 11.7376 18.3829 12.3194 18.3829H16.5308C18.1317 18.3829 19.4416 19.6575 19.4852 21.2578L19.4927 21.5326Z" fill="#11024D"/>
<path d="M37.1967 21.8169C37.1967 22.9806 37.0155 24.0537 36.653 25.0362C36.2906 26.0188 35.7659 26.8629 35.0791 27.5688C34.3923 28.2747 33.572 28.8184 32.6181 29.2C31.6642 29.572 30.5911 29.758 29.3987 29.758C28.2159 29.758 27.1523 29.5672 26.208 29.1857C25.2636 28.8041 24.4433 28.2604 23.747 27.5545C23.0602 26.8391 22.5355 25.9997 22.1731 25.0362C21.8201 24.0633 21.6437 22.9902 21.6437 21.8169C21.6437 20.634 21.8249 19.5514 22.1874 18.5689C22.5498 17.5864 23.0697 16.747 23.747 16.0506C24.4242 15.3543 25.2446 14.8201 26.208 14.4481C27.1714 14.0665 28.235 13.8757 29.3987 13.8757C30.5816 13.8757 31.6547 14.0665 32.6181 14.4481C33.5815 14.8296 34.4066 15.3734 35.0934 16.0792C35.7802 16.7851 36.3001 17.6245 36.653 18.5975C37.0155 19.5705 37.1967 20.6436 37.1967 21.8169ZM33.2763 21.8169C33.2763 20.2239 32.9233 18.9838 32.2175 18.0967C31.5211 17.2096 30.5816 16.766 29.3987 16.766C28.6356 16.766 27.9631 16.9663 27.3813 17.367C26.7994 17.7581 26.3511 18.3399 26.0363 19.1126C25.7215 19.8852 25.5641 20.7867 25.5641 21.8169C25.5641 22.8375 25.7167 23.7294 26.022 24.4925C26.3368 25.2556 26.7803 25.8423 27.3527 26.2525C27.9345 26.6531 28.6166 26.8534 29.3987 26.8534C30.5816 26.8534 31.5211 26.4098 32.2175 25.5227C32.9233 24.6261 33.2763 23.3908 33.2763 21.8169Z" fill="#11024D"/>
<path d="M62.8088 29.9678V29.5815C62.2842 30.1825 61.7643 30.6737 61.2492 31.0553C60.7436 31.4273 60.1904 31.7087 59.5894 31.8995C58.998 32.0998 58.3494 32.2 57.6435 32.2C56.7087 32.2 55.8406 32.0044 55.0394 31.6133C54.2477 31.2127 53.5609 30.6451 52.979 29.9106C52.3971 29.1761 51.9536 28.3129 51.6483 27.3208C51.3526 26.3288 51.2048 25.2556 51.2048 24.1014C51.2048 21.6595 51.8009 19.7565 52.9933 18.3924C54.1856 17.0283 55.7548 16.3463 57.7007 16.3463C58.8263 16.3463 59.7754 16.5419 60.5481 16.933C61.3207 17.3145 62.0743 17.9059 62.8088 18.7072V12.9409C62.8088 12.1397 62.9662 11.5339 63.281 11.1238C63.6053 10.7136 64.0632 10.5085 64.6546 10.5085C65.246 10.5085 65.6991 10.6993 66.0139 11.0809C66.3382 11.4529 66.5004 12.0061 66.5004 12.7406V29.9678C66.5004 30.7119 66.3287 31.2699 65.9853 31.6419C65.6419 32.0139 65.1983 32.2 64.6546 32.2C64.1204 32.2 63.6768 32.0092 63.3239 31.6276C62.9805 31.2365 62.8088 30.6833 62.8088 29.9678ZM55.1252 24.2302C55.1252 25.289 55.2874 26.1904 55.6117 26.9345C55.9456 27.6785 56.3987 28.2413 56.971 28.6229C57.5433 28.9949 58.1681 29.1809 58.8454 29.1809C59.5322 29.1809 60.157 29.0044 60.7198 28.6515C61.2921 28.289 61.7452 27.7405 62.0791 27.006C62.4225 26.262 62.5942 25.3367 62.5942 24.2302C62.5942 23.1905 62.4225 22.2986 62.0791 21.5546C61.7452 20.801 61.2874 20.2286 60.7055 19.8376C60.1332 19.4369 59.5036 19.2366 58.8168 19.2366C58.1014 19.2366 57.4623 19.4417 56.8995 19.8519C56.3367 20.2525 55.8979 20.8344 55.5831 21.5975C55.2779 22.351 55.1252 23.2286 55.1252 24.2302Z" fill="#11024D"/>
<path fill-rule="evenodd" clip-rule="evenodd" d="M45.2885 20.6324C46.0415 22.9224 47.1945 24.1466 48.522 24.4903C49.5665 24.7606 50.1941 25.8266 49.9237 26.8711C49.6533 27.9156 48.5874 28.5431 47.5429 28.2727C44.3669 27.4505 42.5242 24.7341 41.5768 21.8528C41.2217 20.7728 40.9704 19.6136 40.8131 18.4171C40.7969 18.4257 40.7814 18.4339 40.7665 18.4417C40.6922 18.4809 40.6341 18.5111 40.5938 18.532L40.5469 18.5563L40.5337 18.563L40.5298 18.5651C40.5298 18.5651 40.5277 18.5662 39.6388 16.8265L40.5298 18.5651C39.569 19.0559 38.3901 18.6761 37.8992 17.7153C37.4084 16.7547 37.7891 15.578 38.7496 15.087L38.759 15.0822L38.7954 15.0634L38.9457 14.9848C39.0789 14.9146 39.2762 14.8096 39.5258 14.6735C39.8266 14.5094 40.2028 14.3005 40.6342 14.0534C40.661 13.4289 40.7091 12.8076 40.7773 12.1953C41.1367 8.96711 42.0809 5.74092 43.632 3.43126C44.413 2.2682 45.4186 1.23345 46.6869 0.617594C48.0051 -0.0225256 49.4834 -0.146465 50.9993 0.342211L51.1623 0.394772L51.3137 0.474907C52.6531 1.18377 53.7152 2.13265 54.2541 3.39772C54.8059 4.69306 54.6747 6.00127 54.2488 7.13361C53.4526 9.25043 51.4594 11.2143 49.5414 12.772C47.9056 14.1005 46.0954 15.3119 44.5419 16.2733C44.6181 17.8499 44.8659 19.3471 45.2885 20.6324ZM44.8272 11.42C45.5934 10.8886 46.3591 10.3232 47.0783 9.73911C48.9474 8.22109 50.1928 6.81894 50.5918 5.7582C50.7634 5.30177 50.7189 5.0683 50.6595 4.92891C50.592 4.7704 50.3721 4.42925 49.6467 4.01635C49.1558 3.89072 48.7619 3.95339 48.3936 4.13225C47.9376 4.35368 47.4101 4.81358 46.8755 5.60951C45.9501 6.98758 45.2181 9.05642 44.8272 11.42Z" fill="#11024D"/>
</svg>
